<svg xmlns="http://www.w3.org/2000/svg" width="220.325" height="206.194" viewBox="0 0 220.325 206.194"><g transform="translate(0 0)"><g transform="translate(0 0.118)"><g transform="translate(5.911 9.292)"><path d="M330.693,3791.091a42.551,42.551,0,1,0,42.551,42.551A42.6,42.6,0,0,0,330.693,3791.091Zm0,84.055a41.5,41.5,0,1,1,41.5-41.5A41.551,41.551,0,0,1,330.693,3875.146Z" transform="translate(-288.143 -3791.091)"/></g><g transform="translate(30.294 63.94)"><path d="M417.494,4000.053a29.789,29.789,0,0,1-35.339.71.524.524,0,0,0-.6.855,30.839,30.839,0,0,0,36.582-.736.523.523,0,0,0-.639-.829Z" transform="translate(-381.329 -3999.945)"/></g><g transform="translate(55.758 39.086)"><path d="M484.443,3904.959a6.521,6.521,0,0,0-5.734,3.412.523.523,0,0,0,.92.5,5.477,5.477,0,0,1,9.609-.038.523.523,0,1,0,.916-.506A6.528,6.528,0,0,0,484.443,3904.959Z" transform="translate(-478.645 -3904.959)"/></g><g transform="translate(29.592 39.348)"><path d="M379.628,3909.871a5.477,5.477,0,0,1,9.609-.038.523.523,0,0,0,.916-.506,6.524,6.524,0,0,0-11.444.045.523.523,0,1,0,.92.5Z" transform="translate(-378.645 -3905.959)"/></g><g transform="translate(0 27.525)"><path d="M272.011,3865.712l-4.156-4.937-.356.747,1.288,1.5c.653.757,1.131,1.34,1.736,1.993-.888-.059-1.642-.063-2.641-.095l-1.973-.061-.356.747,6.452.125Z" transform="translate(-265.552 -3860.775)"/></g><g transform="translate(3.54 22.463)"><path d="M285.931,3844.466l-.547-.354-1.572,2.437-1.64-1.059,1.272-1.97-.547-.353-1.272,1.97-1.579-1.02,1.507-2.335-.547-.352-1.925,2.982,4.858,3.137Z" transform="translate(-279.082 -3841.43)"/></g><g transform="translate(7.937 17.127)"><path d="M296.961,3826.368a2.931,2.931,0,0,0,4.245-.4,4.253,4.253,0,0,0,.885-1.733l-1.694-1.429-.487.577,1.331,1.123a3.07,3.07,0,0,1-.576,1.006,2.276,2.276,0,0,1-3.464-2.955,3.8,3.8,0,0,1,1.45-1.046l-.564-.476a3.756,3.756,0,0,0-1.421,1.05A2.949,2.949,0,0,0,296.961,3826.368Z" transform="translate(-295.885 -3821.037)"/></g><g transform="translate(13.384 13.408)"><path d="M319.26,3812.439l-.441-1.331,1.916-1.723,1.283.573.609-.547-5.913-2.586-.012.011,1.949,6.152Zm-1.5-4.445c.781.4,1.463.714,2.346,1.107l-1.5,1.348C318.3,3809.529,318.064,3808.817,317.755,3807.994Z" transform="translate(-316.702 -3806.824)"/></g><g transform="translate(17.396 7.635)"><path d="M335.947,3791.668l-2.227-3.32.265.063,5.149,1.235.007,0-3.273-4.881-.64.43,2.227,3.321-.265-.064-5.149-1.235-.007,0,3.273,4.881Z" transform="translate(-332.033 -3784.761)"/></g><g transform="translate(27.044 3.984)"><path d="M370.211,3773.851a1.925,1.925,0,0,0-.523,1.94c.333.8,1.292,1.141,2.442.662a2.382,2.382,0,0,0,1.3-1.213l.66.292.808-.337-1.241-.536a3.14,3.14,0,0,0-.342-2.015l-.616.256a2.668,2.668,0,0,1,.309,1.472l-1.832-.786a1.94,1.94,0,0,0,.539-2.007,1.488,1.488,0,0,0-2.7,1.213A1.992,1.992,0,0,0,370.211,3773.851Zm2.611,1.132a1.734,1.734,0,0,1-.922.9c-.7.29-1.344.116-1.569-.425a1.368,1.368,0,0,1,.412-1.373Zm-2.736-3.48a.791.791,0,0,1,1.05.39c.225.541-.211,1.123-.5,1.462-.513-.23-.835-.418-1.008-.833A.791.791,0,0,1,370.085,3771.5Z" transform="translate(-368.909 -3770.807)"/></g><g transform="translate(36.015 0.822)"><path d="M406.848,3764.653a3.712,3.712,0,0,0,1.638-.758l-.149-.715a3.845,3.845,0,0,1-1.635.774,2.272,2.272,0,0,1-.924-4.45,3.808,3.808,0,0,1,1.771.075l-.149-.715a3.644,3.644,0,0,0-1.767-.059,2.987,2.987,0,1,0,1.215,5.849Z" transform="translate(-403.192 -3758.725)"/></g><g transform="translate(42.892 0.16)"><path d="M430.661,3762.048l-.164-2.259,1.2-.088,1.357,2.173.857-.062-1.479-2.293a1.657,1.657,0,0,0,1.06-1.7c-.081-1.1-.889-1.707-2.155-1.615l-1.866.136.419,5.766Zm.7-5.2c.8-.059,1.312.323,1.362,1.02a1.077,1.077,0,0,1-1.136,1.2l-1.137.083-.162-2.226Z" transform="translate(-429.473 -3756.193)"/></g><g transform="translate(49.365)"><path d="M456.307,3761.584a2,2,0,0,0,2.358-1.978l.232-3.75-.769-.047-.228,3.694a1.457,1.457,0,1,1-2.909-.18l.228-3.693-.769-.047-.232,3.75A2,2,0,0,0,456.307,3761.584Z" transform="translate(-454.212 -3755.583)"/></g><g transform="translate(56.015 0.712)"><path d="M483.354,3764.045l-2.844-.559.377-1.915,2.3.453.126-.638-2.3-.453.362-1.843,2.726.535.125-.637-3.482-.685-1.115,5.672,3.6.708Z" transform="translate(-479.629 -3758.304)"/></g><g transform="translate(61.593 2.145)"><path d="M504.246,3769.66l-2.369-.762,1.572-4.883-.734-.236-1.771,5.5,3.1,1Z" transform="translate(-500.944 -3763.779)"/></g><g transform="translate(66.853 3.542)"><path d="M521.753,3775.431l2.054-4.7,1.619.707.26-.6-3.937-1.72-.26.6,1.612.7-2.054,4.7Z" transform="translate(-521.047 -3769.12)"/></g><g transform="translate(72.102 6.154)"><path d="M541.769,3785.532l1.178-1.972,3.579-1.923-.738-.44-2.794,1.531.022-3.186-.738-.441.006,4.063-1.177,1.972Z" transform="translate(-541.107 -3779.101)"/></g><g transform="translate(77.921 11.813)"><path d="M565.6,3803.668l1.66,1.43.425-.492-1.66-1.431,1.253-1.453,1.97,1.7.425-.493-2.554-2.2-3.774,4.379.584.5Z" transform="translate(-563.346 -3800.726)"/></g><g transform="translate(81.906 15.913)"><path d="M579.1,3820.855l1.677-1.522.81.892-.872,2.408.577.637.892-2.578a1.659,1.659,0,0,0,1.994-.216,1.757,1.757,0,0,0-.058-2.692l-1.258-1.385-4.281,3.887Zm3.8-3.449.724.8a1.111,1.111,0,0,1,.037,1.7,1.077,1.077,0,0,1-1.647-.153l-.766-.844Z" transform="translate(-578.577 -3816.397)"/></g><g transform="translate(85.862 21.083)"><path d="M595.8,3842.479l.532-.374-1.665-2.372,1.6-1.121,1.347,1.918.532-.373-1.346-1.919,1.538-1.08,1.6,2.274.532-.374-2.038-2.9-4.732,3.32Z" transform="translate(-593.694 -3836.155)"/></g><g transform="translate(89.017 26.445)"><path d="M605.752,3859.367l1.726,3.239.574-.306-1.364-2.558,1.722-.918,1.1,2.07.574-.306-1.1-2.07,1.658-.883,1.307,2.452.574-.306-1.669-3.133Z" transform="translate(-605.752 -3856.647)"/></g></g><g transform="translate(115.809 0)"><g transform="translate(0 44.32)"><path d="M701.834,3924.734c-.86-.111-1.375.366-1.915,1.413-.469.935-.839,1.171-1.309,1.111-.51-.066-.765-.6-.674-1.31a3.288,3.288,0,0,1,.513-1.343l-.725-.093a3.693,3.693,0,0,0-.478,1.387c-.141,1.1.319,1.984,1.291,2.109.876.114,1.413-.344,1.937-1.394.459-.921.786-1.194,1.319-1.125s.752.639.66,1.357a3.839,3.839,0,0,1-.615,1.565l.757.1a4.365,4.365,0,0,0,.548-1.613C703.3,3925.692,702.814,3924.86,701.834,3924.734Z" transform="translate(-697.222 -3924.512)"/></g><g transform="translate(1.354 36.414)"><path d="M710.083,3894.568a3.623,3.623,0,0,1-.135.821,4.051,4.051,0,0,1-1.579,2.1,2.969,2.969,0,1,0-.2.878,4.537,4.537,0,0,0,2.435-2.727,3.615,3.615,0,0,0,.144-.885Zm-2.5,3.308a2.275,2.275,0,1,1-1.612-2.7A2.169,2.169,0,0,1,707.579,3897.875Z" transform="translate(-702.396 -3894.3)"/></g><g transform="translate(3.387 28.988)"><path d="M716.438,3870.374a2,2,0,0,0-1.013-2.907L712,3865.92l-.318.7,3.374,1.524a1.458,1.458,0,1,1-1.2,2.656l-3.374-1.524-.317.7,3.425,1.547A2,2,0,0,0,716.438,3870.374Z" transform="translate(-710.165 -3865.92)"/></g><g transform="translate(6.727 23.247)"><path d="M729.779,3846.93l-.552-.344-1.532,2.46-1.656-1.031,1.239-1.991-.552-.344-1.239,1.991-1.595-.994,1.468-2.358-.552-.344-1.876,3.012,4.907,3.056Z" transform="translate(-722.932 -3843.976)"/></g><g transform="translate(11.424 19.34)"><path d="M744.264,3834.21l-.639-1.248,1.631-2,1.356.372.518-.634-6.238-1.656-.01.012,2.863,5.785Zm-2.164-4.166c.832.277,1.555.484,2.488.738l-1.275,1.561C742.878,3831.48,742.531,3830.812,742.1,3830.045Z" transform="translate(-740.883 -3829.048)"/></g><g transform="translate(14.931 12.5)"><path d="M758.8,3809.663l-1.211-1.3-.01-1.563,3.3.919.657-.615-3.94-1.053-.03-3.148-.7.652.1,4.139-2.111-2.258-.563.526,3.947,4.223Z" transform="translate(-754.286 -3802.907)"/></g><g transform="translate(19.574 8.497)"><path d="M777.1,3793.972l.626-.45-1.339-1.866-.336-4.049-.7.5.291,3.174-2.913-1.291-.7.5,3.729,1.614Z" transform="translate(-772.029 -3787.607)"/></g><g transform="translate(28.688 4.326)"><path d="M811.185,3777.434a3.72,3.72,0,0,0,1.418-1.117l-.31-.661a3.844,3.844,0,0,1-1.411,1.131,2.272,2.272,0,0,1-1.93-4.115,3.8,3.8,0,0,1,1.74-.337l-.31-.662a3.652,3.652,0,0,0-1.733.352,2.988,2.988,0,1,0,2.537,5.41Z" transform="translate(-806.86 -3771.666)"/></g><g transform="translate(34.63 2.865)"><path d="M834.458,3770.809l-.2-.618-2.367.771-1.589-4.879-.733.239,1.791,5.5Z" transform="translate(-829.568 -3766.083)"/></g><g transform="translate(40.218 0.765)"><path d="M855.66,3763.7l-.128-.637-2.842.569-.383-1.913,2.3-.46-.128-.637-2.3.46-.369-1.842,2.724-.545-.128-.638-3.48.7,1.135,5.669Z" transform="translate(-850.926 -3758.056)"/></g><g transform="translate(46.206 0.155)"><path d="M875.1,3760.4l2.571-.178.657,1.242.817-.057-3.065-5.678h-.016l-2.253,6.048.817-.057Zm1.08-3.11c.369.8.713,1.464,1.167,2.318l-2.011.139C875.666,3758.836,875.914,3758.127,876.178,3757.288Z" transform="translate(-873.809 -3755.726)"/></g><g transform="translate(53.251)"><path d="M901.786,3757.063l.17.213,3.3,4.14h.008l.418-5.863-.769-.055-.284,3.989-.17-.213-3.3-4.14h-.008l-.418,5.862.769.055Z" transform="translate(-900.732 -3755.134)"/></g><g transform="translate(62.736 1.488)"><g transform="translate(0 0)"><g transform="translate(0 0)"><rect width="5.78" height="0.771" transform="translate(0 5.62) rotate(-76.482)"/></g></g></g><g transform="translate(65.907 2.379)"><path d="M951.187,3766.255l.105.252,2.048,4.884.008,0,2-5.527-.725-.262-1.362,3.759-.105-.251-2.048-4.885-.008,0-2,5.526.725.262Z" transform="translate(-949.101 -3764.227)"/></g><g transform="translate(73.028 6.142)"><path d="M977.959,3784.255a4.262,4.262,0,0,0,1.878.51l1.05-1.952-.664-.358-.826,1.534a3.08,3.08,0,0,1-1.1-.356,2.276,2.276,0,0,1,2.179-4,3.814,3.814,0,0,1,1.322,1.2l.35-.651a3.768,3.768,0,0,0-1.319-1.175,2.988,2.988,0,1,0-2.866,5.242Z" transform="translate(-976.316 -3778.606)"/></g><g transform="translate(78.144 9.087)"><path d="M996.493,3794.99l1.332-1.831.974.708-.365,2.535.695.505.349-2.7a1.659,1.659,0,0,0,1.909-.617,1.757,1.757,0,0,0-.6-2.624l-1.513-1.1-3.4,4.674Zm3.018-4.149.87.633a1.111,1.111,0,0,1,.382,1.658,1.077,1.077,0,0,1-1.643.185l-.922-.672Z" transform="translate(-995.87 -3789.862)"/></g><g transform="translate(82.95 13.253)"><path d="M1016.91,3812.508l.445-.474-2.111-1.985,1.336-1.421,1.708,1.605.445-.473-1.708-1.605,1.287-1.368,2.024,1.9.445-.473-2.585-2.429-3.958,4.212Z" transform="translate(-1014.237 -3805.784)"/></g><g transform="translate(87.016 17.812)"><path d="M1030.847,3828.171a2.9,2.9,0,1,0,4.461-3.675l-1.049-1.289-4.482,3.651Zm3.952-3.271a2.241,2.241,0,1,1-3.453,2.854l-.578-.709,3.473-2.829Z" transform="translate(-1029.777 -3823.207)"/></g><g transform="translate(91.137 23.739)"><g transform="translate(0 0)"><g transform="translate(0)"><rect width="5.782" height="0.771" transform="translate(0 3.148) rotate(-32.987)"/></g></g></g><g transform="translate(92.877 27.017)"><path d="M1054.838,3860.536l1.081,2.081.577-.3-1.081-2.082,1.668-.866,1.281,2.466.578-.3-1.636-3.15-5.131,2.665,1.691,3.256.577-.3-1.336-2.573Z" transform="translate(-1052.174 -3858.387)"/></g><g transform="translate(95.389 32.814)"><path d="M1068.491,3884.136l-3.768,1.344.127-.242,2.465-4.689,0-.007-5.538,1.972.259.726,3.768-1.342-.127.242-2.465,4.689,0,.007,5.538-1.973Z" transform="translate(-1061.774 -3880.541)"/></g><g transform="translate(97.759 39.607)"><path d="M1076.376,3910.842l.637-.135-.889-4.2-.637.134.364,1.721-5.021,1.062.16.754,5.021-1.062Z" transform="translate(-1070.831 -3906.503)"/></g><g transform="translate(98.514 45.957)"><path d="M1077.982,3930.777c-.879.083-1.3.646-1.582,1.785-.245,1-.5,1.337-1.039,1.388s-.873-.458-.941-1.178a3.831,3.831,0,0,1,.255-1.661l-.759.071a4.384,4.384,0,0,0-.179,1.694c.113,1.207.768,1.912,1.751,1.82.863-.082,1.261-.659,1.557-1.8.252-1.015.561-1.327,1.033-1.371.511-.048.878.418.945,1.129a3.283,3.283,0,0,1-.206,1.422l.728-.068a3.709,3.709,0,0,0,.161-1.458C1079.6,3931.448,1078.958,3930.686,1077.982,3930.777Z" transform="translate(-1073.719 -3930.77)"/></g><g transform="translate(9.6 9.526)"><path d="M776.463,3791.541a42.551,42.551,0,1,0,42.55,42.551A42.6,42.6,0,0,0,776.463,3791.541Zm0,84.054a41.5,41.5,0,1,1,41.5-41.5A41.551,41.551,0,0,1,776.463,3875.595Z" transform="translate(-733.912 -3791.541)"/></g><g transform="translate(33.561 37.548)"><path d="M862.163,3916.623l-6.981-1.25a11.507,11.507,0,0,1-9.259-9.259l-1.251-6.981a.608.608,0,0,0-1.2,0l-1.251,6.981a11.506,11.506,0,0,1-9.259,9.259l-6.981,1.25a.608.608,0,0,0,0,1.2l6.981,1.251a11.5,11.5,0,0,1,9.259,9.259l1.251,6.981a.608.608,0,0,0,1.2,0l1.251-6.981a11.506,11.506,0,0,1,9.259-9.259l6.981-1.251a.608.608,0,0,0,0-1.2ZM855,3918.04a12.556,12.556,0,0,0-10.1,10.1l-.819,4.571-.819-4.571a12.556,12.556,0,0,0-10.1-10.1l-4.57-.818,4.57-.819a12.556,12.556,0,0,0,10.1-10.1l.819-4.571.819,4.571a12.556,12.556,0,0,0,10.1,10.1l4.57.819Z" transform="translate(-825.485 -3898.633)"/></g><g transform="translate(59.118 36.574)"><path d="M935.282,3900.656l-2.228-.4a3.314,3.314,0,0,1-2.667-2.667l-.4-2.226a.55.55,0,0,0-1.083,0l-.4,2.228a3.314,3.314,0,0,1-2.667,2.667l-2.229.4a.55.55,0,0,0,0,1.083l2.228.4a3.314,3.314,0,0,1,2.667,2.667l.4,2.228a.55.55,0,0,0,1.083,0l.4-2.228a3.314,3.314,0,0,1,2.667-2.667l2.229-.4a.55.55,0,0,0,0-1.083Zm-5.836,3.572a3.031,3.031,0,1,1,0-6.062,3.031,3.031,0,1,1,0,6.062Z" transform="translate(-923.157 -3894.909)"/></g><g transform="translate(38.634 29.052)"><path d="M846.811,3871.354a2.049,2.049,0,0,1,1.65,1.649l.267,1.494h0a.541.541,0,0,0,.533.445h0l.454-.016.345-1.924a2.049,2.049,0,0,1,1.649-1.649l1.5-.269a.54.54,0,0,0,.445-.534l-.016-.454-1.924-.345a2.049,2.049,0,0,1-1.649-1.649l-.267-1.493a.54.54,0,0,0-.531-.448l-.457.013-.345,1.927a2.049,2.049,0,0,1-1.65,1.649l-1.491.268a.54.54,0,0,0-.448.531l.014.457Zm2.45-2.333a1.532,1.532,0,0,1,0,3.064,1.532,1.532,0,1,1,0-3.064Z" transform="translate(-844.871 -3866.163)"/></g></g><g transform="translate(2.967 111.657)"><g transform="translate(0 26.565)"><path d="M3025.55,4662.149l.673.36a4.4,4.4,0,0,0,1.083-1.316c.57-1.071.412-2.019-.46-2.484-.765-.408-1.416-.145-2.291.646-.769.708-1.2.8-1.617.575-.454-.241-.5-.833-.167-1.462a3.291,3.291,0,0,1,.955-1.076l-.645-.343a3.718,3.718,0,0,0-.939,1.129,1.666,1.666,0,0,0,.462,2.429c.78.416,1.444.178,2.3-.618.754-.7,1.157-.84,1.632-.587s.477.864.136,1.5A3.83,3.83,0,0,1,3025.55,4662.149Z" transform="translate(-3021.831 -4657.048)"/></g><g transform="translate(2.573 20.331)"><path d="M3037.744,4638.446a2,2,0,0,0-.437-3.048l-3.065-2.176-.446.629,3.019,2.143a1.457,1.457,0,1,1-1.687,2.376l-3.019-2.143-.446.629,3.064,2.174A2,2,0,0,0,3037.744,4638.446Z" transform="translate(-3031.663 -4633.222)"/></g><g transform="translate(7.439 15.946)"><path d="M3053.121,4619.771c.907-.486,1.331-.52,1.727-.156s.243.957-.246,1.488a3.816,3.816,0,0,1-1.406.921l.561.517a4.372,4.372,0,0,0,1.38-1c.822-.893.907-1.85.181-2.519-.638-.587-1.333-.5-2.379.046-.923.493-1.361.471-1.71.15-.378-.348-.277-.932.207-1.458a3.3,3.3,0,0,1,1.2-.8l-.538-.494a3.7,3.7,0,0,0-1.193.855,1.665,1.665,0,0,0-.166,2.466C3051.385,4620.387,3052.086,4620.325,3053.121,4619.771Z" transform="translate(-3050.261 -4616.466)"/></g><g transform="translate(10.653 11.462)"><path d="M3064.3,4601.484l3.365,3.872.581-.505-3.365-3.872,1.333-1.158-.426-.491-3.242,2.817.427.49Z" transform="translate(-3062.544 -4599.329)"/></g><g transform="translate(16.848 9.193)"><path d="M3088.038,4596.55l-.267-1.376,2.121-1.464,1.2.735.674-.465-5.532-3.324-.013.01,1.144,6.35Zm1.262-3.2-1.658,1.144c-.178-.95-.325-1.687-.526-2.542C3087.838,4592.445,3088.475,4592.844,3089.3,4593.348Z" transform="translate(-3086.22 -4590.655)"/></g><g transform="translate(21.173 6.254)"><g transform="translate(0 0)"><g transform="translate(0)"><rect width="0.771" height="5.782" transform="translate(0 0.37) rotate(-28.706)"/></g></g></g><g transform="translate(24.595 3.077)"><path d="M3118.776,4574.067l-1.521-3.7.247.116,4.8,2.237.008,0-2.236-5.437-.713.293,1.522,3.7-.247-.115-4.8-2.237-.007,0,2.236,5.437Z" transform="translate(-3115.828 -4567.281)"/></g><g transform="translate(32.651 1.511)"><path d="M3147.64,4566.068l2.5-.629.866,1.107.794-.2-4.02-5.047-.015,0-1.15,6.351.794-.2Zm.514-3.251c.5.717.961,1.315,1.558,2.076l-1.954.491C3147.923,4564.432,3148.043,4563.69,3148.154,4562.817Z" transform="translate(-3146.615 -4561.297)"/></g><g transform="translate(38.868 0.345)"><path d="M3173.006,4562.581c1.141-.131,1.833-.865,1.72-1.839a1.487,1.487,0,0,0-1.11-1.286,1.27,1.27,0,0,0,.584-1.239c-.113-.981-.93-1.484-2.063-1.354l-1.763.2.662,5.744Zm.935-1.78a1.014,1.014,0,0,1-.982,1.155l-1.252.144-.235-2.033,1.4-.161A.925.925,0,0,1,3173.941,4560.8Zm-1.676-3.322a.954.954,0,0,1,1.159.868.842.842,0,0,1-.5.945l-1.524.177-.215-1.867Z" transform="translate(-3170.374 -4556.842)"/></g><g transform="translate(45.538)"><path d="M3199.135,4560.708l-2.489-.04.084-5.131-.771-.012-.095,5.781,3.26.054Z" transform="translate(-3195.865 -4555.524)"/></g><g transform="translate(49.969 0.065)"><path d="M3214.249,4561.744l.767.083.249-2.283,2.452-3.237-.854-.093-1.9,2.554-1.307-2.9-.854-.093,1.7,3.692Z" transform="translate(-3212.8 -4555.771)"/></g><g transform="translate(58.042 1.912)"><path d="M3247.5,4567.657c.241-.833-.15-1.415-1.1-2.108-.853-.607-1.029-1.011-.9-1.465.144-.494.711-.663,1.4-.465a3.286,3.286,0,0,1,1.249.714l.2-.7a3.707,3.707,0,0,0-1.3-.686c-1.065-.308-2.01.011-2.283.952-.246.848.124,1.45,1.081,2.127.839.6,1.06.96.91,1.478s-.747.644-1.441.442a3.848,3.848,0,0,1-1.453-.846l-.212.732a4.364,4.364,0,0,0,1.51.789C3246.327,4568.957,3247.223,4568.605,3247.5,4567.657Z" transform="translate(-3243.652 -4562.83)"/></g><g transform="translate(63.933 4.221)"><path d="M3267.927,4577.378a2.988,2.988,0,1,0-1.484-3.938A2.921,2.921,0,0,0,3267.927,4577.378Zm-.773-3.621a2.183,2.183,0,1,1,1.065,2.967A2.168,2.168,0,0,1,3267.154,4573.757Z" transform="translate(-3266.165 -4571.656)"/></g><g transform="translate(70.77 7.155)"><path d="M3293.413,4589.013a2,2,0,0,0,3.025-.572l2.036-3.158-.647-.417-2.007,3.11a1.457,1.457,0,1,1-2.449-1.579l2.006-3.111-.648-.417-2.036,3.158A2,2,0,0,0,3293.413,4589.013Z" transform="translate(-3292.296 -4582.868)"/></g><g transform="translate(75.681 11.466)"><path d="M3311.65,4604.234l1.474-1.719.915.783-.565,2.5.652.559.563-2.667a1.661,1.661,0,0,0,1.952-.464,1.756,1.756,0,0,0-.393-2.663l-1.42-1.217-3.763,4.389Zm3.339-3.9.817.7a1.111,1.111,0,0,1,.25,1.684,1.077,1.077,0,0,1-1.653.053l-.866-.742Z" transform="translate(-3311.065 -4599.343)"/></g><g transform="translate(81.025 16.873)"><path d="M3332.312,4625.055a3.715,3.715,0,0,0,1.479,1.036l.544-.487a3.864,3.864,0,0,1-1.49-1.026,2.273,2.273,0,0,1,3.385-3.033,3.789,3.789,0,0,1,.824,1.57l.545-.488a3.632,3.632,0,0,0-.836-1.558,2.988,2.988,0,1,0-4.45,3.987Z" transform="translate(-3331.488 -4620.006)"/></g><g transform="translate(84.261 21.456)"><path d="M3345.934,4643.824l.536-.368-1.643-2.39,1.608-1.106,1.329,1.933.536-.368-1.33-1.933,1.548-1.065,1.575,2.289.536-.367-2.012-2.926-4.763,3.278Z" transform="translate(-3343.854 -4637.522)"/></g><g transform="translate(87.387 26.892)"><path d="M3360.959,4658.3l-5.157,2.612.766,1.513a2.9,2.9,0,1,0,5.143-2.643Zm-.786,4.846a2.139,2.139,0,0,1-3.029-1.023l-.414-.815,4-2.025.4.788A2.153,2.153,0,0,1,3360.173,4663.143Z" transform="translate(-3355.802 -4658.297)"/></g><g transform="translate(4.127 9.423)"><path d="M3080.155,4591.536a42.551,42.551,0,1,0,42.551,42.552A42.6,42.6,0,0,0,3080.155,4591.536Zm0,84.055a41.5,41.5,0,1,1,41.5-41.5A41.55,41.55,0,0,1,3080.155,4675.591Z" transform="translate(-3037.604 -4591.536)"/></g><g transform="translate(31.482 27.536)"><path d="M3172.241,4674.892l-.072-.325-.325-.072a4.973,4.973,0,1,1-8.538-3.224,12.191,12.191,0,0,0-5.682-10.333l-.281-.179-.28.179a9.867,9.867,0,0,1-14.221,13.557l-.325.072-.073.325a12.194,12.194,0,0,0,3.289,11.324,2.375,2.375,0,1,1-2.891,1.435l-.325.073-.073.324a12.239,12.239,0,0,0,11.921,14.91,12.386,12.386,0,0,0,2.455-.251v8.935a.523.523,0,1,0,1.046,0v-8.935a12.392,12.392,0,0,0,2.456.251,12.239,12.239,0,0,0,11.919-14.91l-.072-.324-.325-.073a2.375,2.375,0,1,1-2.892-1.435A12.188,12.188,0,0,0,3172.241,4674.892Zm-14.9-12.886a11.189,11.189,0,1,1-4.917,9.265A11.141,11.141,0,0,1,3157.343,4662.006Zm-13.944,13.442a11.189,11.189,0,1,1,3.075,10.028A11.146,11.146,0,0,1,3143.4,4675.448Zm13.1,26.258a11.187,11.187,0,1,1-3.074-10.028A11.145,11.145,0,0,1,3156.5,4701.706Zm-2.335-10.768a12.472,12.472,0,0,0-1.476-1.253,12.171,12.171,0,0,0,1.674.117,12.385,12.385,0,0,0,2.455-.25v5.353A12.236,12.236,0,0,0,3154.167,4690.938Zm17.121-2.334a11.188,11.188,0,1,1-10.028,3.074A11.149,11.149,0,0,1,3171.288,4688.6Zm-10.769,2.334a12.241,12.241,0,0,0-2.653,3.966v-5.353a12.318,12.318,0,0,0,2.455.25,12.167,12.167,0,0,0,1.674-.117A12.472,12.472,0,0,0,3160.519,4690.938Zm-2.335-2.387a11.189,11.189,0,1,1,10.029-3.075A11.147,11.147,0,0,1,3158.184,4688.551Z" transform="translate(-3142.147 -4660.759)"/></g></g><g transform="translate(121.403 111.657)"><g transform="translate(0 25.949)"><path d="M3481.092,4658.392a1.691,1.691,0,0,0-.493-2.469,1.489,1.489,0,0,0-1.692.152,1.272,1.272,0,0,0-.667-1.2,1.638,1.638,0,0,0-2.3.887l-.863,1.552,5.054,2.808Zm-5.107-1.423.527-.948a.956.956,0,0,1,1.381-.436.846.846,0,0,1,.479.957l-.745,1.339Zm2.169,1.205.687-1.236a.927.927,0,0,1,1.349-.343,1.015,1.015,0,0,1,.367,1.472l-.612,1.1Z" transform="translate(-3475.075 -4654.67)"/></g><g transform="translate(3.466 20.328)"><path d="M3493.426,4638.466l-1.821-1.345.716-.969,2.531.384.51-.69-2.7-.369a1.659,1.659,0,0,0-.6-1.914,1.757,1.757,0,0,0-2.628.584l-1.111,1.5,4.649,3.437Zm-4.126-3.049.639-.865a1.112,1.112,0,0,1,1.661-.371,1.079,1.079,0,0,1,.172,1.646l-.678.917Z" transform="translate(-3488.319 -4633.189)"/></g><g transform="translate(8.532 14.627)"><path d="M3512.795,4616.492a2.987,2.987,0,1,0-4.208,0A2.922,2.922,0,0,0,3512.795,4616.492Zm-3.738-3.7a2.275,2.275,0,1,1,.078,3.15A2.162,2.162,0,0,1,3509.057,4612.792Z" transform="translate(-3507.68 -4611.399)"/></g><g transform="translate(15.023 10.58)"><path d="M3534.567,4601.744l-.328-1.364,2.054-1.559,1.23.681.652-.495-5.675-3.075-.012.011,1.426,6.3Zm1.119-3.256-1.607,1.217c-.219-.943-.4-1.671-.639-2.519C3534.184,4597.649,3534.838,4598.021,3535.686,4598.488Z" transform="translate(-3532.488 -4595.933)"/></g><g transform="translate(19.335 6.422)"><path d="M3553.265,4585.549a2.9,2.9,0,1,0-2.845-5.031l-1.452.81,2.817,5.048Zm-2.535-4.461a2.241,2.241,0,1,1,2.211,3.9l-.8.447-2.183-3.913Z" transform="translate(-3548.969 -4580.042)"/></g><g transform="translate(28.636 2.456)"><path d="M3586.7,4568.292c1.029.009,1.418.182,1.59.692s-.246.956-.931,1.186a3.815,3.815,0,0,1-1.676.134l.244.722a4.373,4.373,0,0,0,1.69-.214c1.149-.387,1.685-1.187,1.369-2.123-.277-.821-.931-1.077-2.109-1.1-1.046-.011-1.42-.241-1.572-.689-.164-.487.2-.951.882-1.18a3.262,3.262,0,0,1,1.432-.126l-.233-.695a3.716,3.716,0,0,0-1.458.18c-1.05.354-1.644,1.155-1.331,2.085C3584.878,4568,3585.523,4568.28,3586.7,4568.292Z" transform="translate(-3584.512 -4564.886)"/></g><g transform="translate(34.336 1.058)"><path d="M3608.241,4565.471l-.462-2.2.983-.205a1.777,1.777,0,1,0-.726-3.458l-1.736.365,1.187,5.658Zm-.1-5.221a1.067,1.067,0,0,1,1.408.844,1.038,1.038,0,0,1-.887,1.328l-1.022.213-.458-2.186Z" transform="translate(-3606.3 -4559.542)"/></g><g transform="translate(40.69 0.057)"><path d="M3634.725,4561.467l-.055-.647-2.888.244-.164-1.945,2.336-.2-.055-.649-2.336.2-.158-1.873,2.769-.233-.055-.647-3.536.3.486,5.762Z" transform="translate(-3630.583 -4555.717)"/></g><g transform="translate(46.384 0)"><path d="M3655.27,4561.473a3.713,3.713,0,0,0,1.773-.34l.029-.73a3.834,3.834,0,0,1-1.774.356,2.272,2.272,0,0,1,.178-4.541,3.774,3.774,0,0,1,1.7.5l.029-.73a3.644,3.644,0,0,0-1.7-.484,2.988,2.988,0,1,0-.234,5.97Z" transform="translate(-3652.343 -4555.5)"/></g><g transform="translate(53.357 0.413)"><path d="M3679.869,4563.073l.76.129.857-5.059,1.741.3.109-.643-4.235-.718-.109.641,1.734.295Z" transform="translate(-3678.993 -4557.079)"/></g><g transform="translate(58.485 1.727)"><path d="M3699.98,4565.688l1.153.346.5,2.512.822.248-.565-2.668a1.657,1.657,0,0,0,1.6-1.214c.318-1.062-.223-1.911-1.437-2.275l-1.792-.539-1.663,5.538.739.22Zm.824-2.745,1.031.309c.769.231,1.111.77.909,1.438a1.077,1.077,0,0,1-1.49.719l-1.092-.327Z" transform="translate(-3698.59 -4562.098)"/></g><g transform="translate(64.73 3.835)"><path d="M3723.833,4576.426a2,2,0,0,0,2.912-1l1.562-3.416-.7-.321-1.539,3.367a1.457,1.457,0,1,1-2.65-1.212l1.538-3.366-.7-.32-1.563,3.417A2,2,0,0,0,3723.833,4576.426Z" transform="translate(-3722.456 -4570.157)"/></g><g transform="translate(70.23 7.142)"><path d="M3744.1,4588.113l2.131-3.232.026.238.287,2.7,2.6-.8.229-.07-2.13,3.23.623.412,3.235-4.907-.006,0-3.956,1.23-.422-4.116-.007,0-3.235,4.906Z" transform="translate(-3743.478 -4582.794)"/></g><g transform="translate(79.269 14.898)"><path d="M3780.492,4618.554l.517-.517a3.846,3.846,0,0,1-1.544-.943,2.272,2.272,0,0,1,3.216-3.211,3.8,3.8,0,0,1,.907,1.522l.517-.516a3.634,3.634,0,0,0-.918-1.511,2.987,2.987,0,1,0-4.228,4.22A3.726,3.726,0,0,0,3780.492,4618.554Z" transform="translate(-3778.022 -4612.436)"/></g><g transform="translate(82.771 19.216)"><path d="M3792.609,4634.029a1.694,1.694,0,0,0,2.461.535,1.489,1.489,0,0,0,.535-1.614,1.269,1.269,0,0,0,1.364-.135,1.637,1.637,0,0,0,.1-2.465l-1.08-1.41-4.59,3.516Zm3.342-4.115.659.859a.956.956,0,0,1-.151,1.44.843.843,0,0,1-1.067.061l-.933-1.218Zm-1.111,2.63a.927.927,0,0,1-.223,1.374,1.015,1.015,0,0,1-1.5-.25l-.767-1,1.626-1.245Z" transform="translate(-3791.403 -4628.939)"/></g><g transform="translate(86.309 24.726)"><path d="M3810.771,4651.441l-.822-1.444-5.025,2.857.837,1.473a2.9,2.9,0,1,0,5.01-2.885Zm-1.374,3.432a2.139,2.139,0,0,1-3.074-.875l-.452-.8,3.894-2.215.437.769A2.152,2.152,0,0,1,3809.4,4654.873Z" transform="translate(-3804.925 -4649.997)"/></g><g transform="translate(4.206 9.435)"><path d="M3533.7,4591.558a42.551,42.551,0,1,0,42.551,42.551A42.6,42.6,0,0,0,3533.7,4591.558Zm0,84.055a41.5,41.5,0,1,1,41.5-41.5A41.551,41.551,0,0,1,3533.7,4675.613Z" transform="translate(-3491.148 -4591.558)"/></g><g transform="translate(23.812 34.375)"><path d="M3600.635,4687.337l-.4-.465-.4.465a79.571,79.571,0,0,0-5.223,7,80.135,80.135,0,0,0-5.193-7l-.4-.465-.4.465a79.918,79.918,0,0,0-5.221,7,80.139,80.139,0,0,0-5.194-7l-.4-.465-.4.465a80.308,80.308,0,0,0-5.783,7.856c-3.835,5.965-5.7,10.816-5.549,14.425a11.374,11.374,0,0,0,3.716,8.635,12.286,12.286,0,0,0,7.575,3.1c.16,0,.308-.007.442-.019a11.366,11.366,0,0,0,5.58-1.428,11.739,11.739,0,0,0,5.189,1.447c.159,0,.307-.007.442-.019a11.383,11.383,0,0,0,5.58-1.426,11.757,11.757,0,0,0,5.188,1.445c.16,0,.307-.007.442-.019a12.13,12.13,0,0,0,8.009-3.108,11.377,11.377,0,0,0,3.715-8.609c.1-3.645-1.786-8.508-5.6-14.459A80.325,80.325,0,0,0,3600.635,4687.337Zm-11.61,1.159a82.4,82.4,0,0,1,4.964,6.8,38.254,38.254,0,0,0-4.981,10.383,38.954,38.954,0,0,0-4.975-10.38A81.928,81.928,0,0,1,3589.025,4688.5Zm5.589,7.783c2.668,4.254,5.2,9.359,5.092,13.315a10.375,10.375,0,0,1-3.368,7.856,10.807,10.807,0,0,1-1.727,1.26,11.231,11.231,0,0,1-1.692-1.237,10.226,10.226,0,0,1-3.366-7.874v-.018C3589.383,4705.664,3591.924,4700.546,3594.614,4696.279Zm-6.119,13.315a10.372,10.372,0,0,1-3.368,7.856,10.831,10.831,0,0,1-1.726,1.26,11.113,11.113,0,0,1-1.692-1.237,10.223,10.223,0,0,1-3.366-7.874v-.018c-.17-3.918,2.37-9.036,5.061-13.3C3586.072,4700.533,3588.6,4705.638,3588.5,4709.594Zm-10.634,10.7-.05-.006-.05.006a10.914,10.914,0,0,1-7.263-2.818,10.225,10.225,0,0,1-3.366-7.874v-.018c-.315-7.256,8.663-18.626,10.681-21.086a82.222,82.222,0,0,1,4.964,6.8c-3.789,5.914-5.634,10.731-5.481,14.319a11.368,11.368,0,0,0,3.715,8.633,12.042,12.042,0,0,0,1.32,1.017A10.08,10.08,0,0,1,3577.861,4720.291Zm11.211,0-.05-.006-.05.006a9.8,9.8,0,0,1-4.5-1.016,11.857,11.857,0,0,0,1.359-1.045,3.548,3.548,0,1,1,6.4.024,11.736,11.736,0,0,0,1.32,1.017A10.085,10.085,0,0,1,3589.072,4720.291Zm18.478-2.84a11.1,11.1,0,0,1-7.267,2.84l-.05-.006-.051.006a9.794,9.794,0,0,1-4.5-1.016,11.831,11.831,0,0,0,1.359-1.045,11.378,11.378,0,0,0,3.715-8.609c.1-3.615-1.759-8.432-5.51-14.316a82.044,82.044,0,0,1,4.993-6.808c2,2.454,10.878,13.758,10.681,21.1A10.371,10.371,0,0,1,3607.549,4717.451Z" transform="translate(-3566.077 -4686.872)"/></g></g></g></svg>